<?xml version="1.0" encoding="utf-8"?>
<!-- Generator: Adobe Illustrator 16.0.0, SVG Export Plug-In . SVG Version: 6.00 Build 0)  -->
<!DOCTYPE svg PUBLIC "-//W3C//DTD SVG 1.1//EN" "http://www.w3.org/Graphics/SVG/1.1/DTD/svg11.dtd">
<svg version="1.1" id="Your_Icon" xmlns="http://www.w3.org/2000/svg" xmlns:xlink="http://www.w3.org/1999/xlink" x="0px" y="0px"
	 width="100px" height="100px" viewBox="0 0 100 100" enable-background="new 0 0 100 100" xml:space="preserve">
<path fill="#FF6A29" d="M96.91,77.376c0.284-1.335-0.138-2.278-0.814-3.351c-3.048-4.838-6.098-9.674-9.148-14.51
	c0.36-0.953,0.719-1.903,1.077-2.856c0.204-0.542,0.106-1.154-0.259-1.606c-1.909-2.368-3.819-4.732-5.729-7.098
	c-0.339-0.422-0.694-0.596-1.232-0.609c-0.519-0.012-1.038-0.027-1.556-0.038c-0.279-0.445-0.56-0.89-0.84-1.332
	c-0.058-0.092-0.125-0.134-0.233-0.15c-1.012-0.138-2.024-0.272-3.034-0.41c-0.708-2.434-2.006-6.851-2.331-7.667
	c-0.275-0.685-0.827-1.218-1.554-1.499c-0.968-0.375-2.2-0.28-3.302,0.254c-0.485,0.236-1.237,0.765-4.012,4.061
	c-0.19,0.228-0.378,0.451-0.56,0.669c-0.389-0.517-0.777-1.033-1.165-1.553c-0.088-0.117-0.098-0.209-0.034-0.341
	c0.531-1.095,1.062-2.194,1.595-3.292c1.241-1.559,2.48-3.12,3.719-4.68c0.142-0.177,0.13-0.309-0.045-0.453
	c-0.162-0.137-0.322-0.273-0.486-0.411c-0.157-0.133-0.278-0.13-0.434,0.008c-1.579,1.442-3.158,2.88-4.741,4.323
	c-1.613,2.644-3.231,5.288-4.847,7.933c-0.08,0.127-0.169,0.173-0.324,0.15c-0.929-0.125-1.856-0.249-2.787-0.373
	c-0.311,0.754-0.623,1.509-0.935,2.263c-13.579-8.686-27.162-17.371-40.745-26.054c-2.854-1.819-6.649-0.985-8.476,1.865
	c-1.826,2.856-0.989,6.651,1.863,8.479c14.2,9.08,28.398,18.159,42.597,27.235c-0.1,0.245-0.2,0.489-0.303,0.735
	c0.384,1.038,0.98,2.195,1.366,3.233c0.555,0.339,0.928,0.576,1.872,1.135c-0.002,0.002-0.002,0.002-0.002,0.003
	c-0.443,0.775-0.435,1.638,0.328,2.104c0.762,0.468,1.638,0.199,2.1-0.565c0.001,0.001-0.119-0.027-0.119-0.027
	c0.015,0.009,0.027,0.018,0.045,0.026c12.124,6.917,24.387,13.588,36.572,20.398c1.536,0.859,3.484,0.334,4.4-1.166
	c0.33-0.536,0.662-1.081,0.99-1.62C96.013,79.566,96.645,78.591,96.91,77.376z M65.23,44.081c1.795-2.199,3.61-4.282,4.182-4.689
	c0.198-0.088,0.377-0.125,0.505-0.133c0.307,0.923,1.037,3.366,1.717,5.684C69.502,44.654,67.363,44.369,65.23,44.081z
	 M93.01,81.338c-0.458,0.75-1.43,1.007-2.195,0.577c-2.831-1.585-5.661-3.165-8.493-4.749c-1.074-0.601-1.887-1.286-2.452-2.423
	c-0.61-1.226-0.561-2.154,0.149-3.318c0.698-1.142,1.396-2.283,2.094-3.423c1.354-2.217,3.145-1.981,4.926-0.169
	c0.262,1.413,0.516,2.82,0.772,4.23c0.037,0.206,0.295,0.277,0.434,0.12c0.437-0.489,1.293-0.811,1.89-0.781
	c1.173,1.368,2.347,2.732,3.519,4.098c1.02,1.187,1.155,2.893,0.343,4.223C93.667,80.261,93.338,80.802,93.01,81.338z"/>
</svg>
