<svg xmlns="http://www.w3.org/2000/svg" xmlns:xlink="http://www.w3.org/1999/xlink" version="1.1" id="Layer_1" x="0px" y="0px" width="100px" height="100px" viewBox="0 0 100 100" enable-background="new 0 0 100 100" xml:space="preserve">
<path fill="none" d="M42.874,45.415c-0.026-0.069-0.056-0.138-0.088-0.204c-0.255-0.53-0.13-1.141,0.265-1.535l-1.916-1.917  C41.667,42.819,42.243,44.024,42.874,45.415z"/>
<path d="M94.974,58.663c-0.095-0.514-0.406-0.962-0.854-1.227L74.393,45.78c-0.576-0.339-1.291-0.334-1.854,0.019l-18.83,11.656  c-0.439,0.271-0.739,0.718-0.824,1.228c-0.087,0.507,0.05,1.028,0.376,1.429c0.715,0.877,1.473,1.653,2.289,2.346v17.146  c0,0.411,0.142,0.81,0.401,1.132c4.349,5.349,16.021,5.503,17.338,5.503c1.447,0,14.272-0.154,18.621-5.505  c0.259-0.319,0.401-0.719,0.401-1.13V62.405c0.833-0.684,1.594-1.441,2.286-2.294C94.927,59.705,95.063,59.177,94.974,58.663z   M70.195,82.515c-1.048-0.092-2.104-0.228-3.138-0.409v-7.974l3.138,0.483V82.515z M88.723,78.901  c-2.888,2.743-10.676,3.75-15.435,3.75c-0.133,0-0.27-0.005-0.401-0.007V73.46c0-0.662-0.485-1.227-1.141-1.329l-5.829-0.896  c-0.387-0.059-0.782,0.054-1.079,0.309c-0.299,0.256-0.47,0.628-0.47,1.021v8.938c-2.184-0.607-4.071-1.467-5.232-2.595V64.745  c3.481,1.624,7.989,2.305,14.346,2.305c6.674,0,11.544-0.747,15.243-2.432v14.283H88.723z"/>
<path d="M42.994,51.084c-0.093-0.514-0.403-0.961-0.852-1.228L24.696,39.547c-0.574-0.339-1.289-0.335-1.856,0.019L6.188,49.875  c-0.438,0.272-0.739,0.718-0.826,1.227c-0.086,0.508,0.053,1.028,0.376,1.43c0.619,0.76,1.275,1.433,1.978,2.039v15.065  c0,0.414,0.141,0.814,0.401,1.133c3.908,4.808,14.319,4.945,15.495,4.945c1.291,0,12.723-0.138,16.631-4.945  c0.259-0.318,0.401-0.719,0.401-1.133V54.527c0.717-0.598,1.376-1.257,1.977-1.995C42.95,52.126,43.086,51.599,42.994,51.084z   M29.067,71.719c-0.815,0.121-1.643,0.217-2.466,0.283v-6.663l2.466-0.431V71.719z M37.057,68.925  c-1.089,0.981-3.035,1.744-5.301,2.282v-7.896c0-0.396-0.174-0.773-0.48-1.028c-0.303-0.257-0.705-0.369-1.095-0.295l-5.156,0.896  c-0.645,0.112-1.114,0.67-1.114,1.323v7.917c-0.1,0-0.202,0.004-0.3,0.004c-3.707,0-9.821-0.859-12.309-3.192V56.826  c3.064,1.35,7.004,1.918,12.48,1.918c5.76,0,10.013-0.63,13.274-2.041L37.057,68.925L37.057,68.925z"/>
<path d="M66.194,30.267v-4.58c0.645-0.542,1.238-1.138,1.781-1.806c0.329-0.406,0.467-0.933,0.374-1.447  c-0.092-0.514-0.404-0.962-0.853-1.228L51.48,11.741c-0.576-0.339-1.292-0.334-1.856,0.019l-15.292,9.465  c-0.437,0.271-0.738,0.718-0.824,1.227c-0.086,0.507,0.052,1.029,0.376,1.429c0.559,0.688,1.151,1.297,1.782,1.847v1.952  C17.312,27.062,5.226,28.323,5,28.346l0.389,3.565c0.223-0.024,12.152-1.267,30.278-0.648v8.235c0,0.412,0.142,0.812,0.401,1.131  c3.554,4.372,12.57,4.594,14.34,4.594c1.193,0,11.755-0.129,15.382-4.594c0.262-0.319,0.403-0.72,0.403-1.131v-5.613  c8.98,1.252,18.938,3.215,28.662,5.691L95,35.829C84.968,33.273,75.446,31.537,66.194,30.267z M48.427,41.562  c-0.679-0.049-1.364-0.117-2.043-0.214v-5.493h2.043V41.562z M62.607,38.778c-2.017,1.763-7.13,2.751-11.491,2.849V34.51  c0-0.743-0.603-1.346-1.345-1.346h-4.732c-0.742,0-1.344,0.602-1.344,1.346v6.31c-1.859-0.475-3.47-1.155-4.441-2.033v-7.381v-3.442  c2.801,1.182,6.387,1.677,11.313,1.677c5.187,0,9.056-0.553,12.041-1.795v1.951v3.609V38.778L62.607,38.778z"/>
</svg>