<?xml version="1.0" encoding="utf-8"?>
<!-- Generator: Adobe Illustrator 16.0.0, SVG Export Plug-In . SVG Version: 6.00 Build 0)  -->
<!DOCTYPE svg PUBLIC "-//W3C//DTD SVG 1.1//EN" "http://www.w3.org/Graphics/SVG/1.1/DTD/svg11.dtd">
<svg version="1.1" id="Layer_1" xmlns="http://www.w3.org/2000/svg" xmlns:xlink="http://www.w3.org/1999/xlink" x="0px" y="0px"
	 width="20px" height="20px" viewBox="0 0 20 20" enable-background="new 0 0 20 20" xml:space="preserve">
<g>
	<path fill="#231F20" d="M0.717,8.777c0,0,0.024-0.076,0.109-0.248c0.078-0.154,0.182-0.381,0.345-0.647
		C1.49,7.346,1.998,6.608,2.77,5.848C3.155,5.469,3.597,5.073,4.113,4.71C4.63,4.35,5.202,3.99,5.839,3.691
		c0.639-0.296,1.333-0.534,2.06-0.715c0.365-0.076,0.738-0.138,1.113-0.2c0.376-0.044,0.756-0.053,1.136-0.078l0.143-0.008
		l0.036-0.001l0.018-0.001l0.113,0.001l0.061,0.004l0.241,0.014l0.48,0.029c0.277-0.002,0.77,0.097,1.146,0.159
		c0.794,0.149,1.467,0.378,2.132,0.669c1.306,0.587,2.367,1.395,3.12,2.195c0.384,0.394,0.692,0.79,0.945,1.151
		c0.255,0.36,0.444,0.696,0.591,0.975c0.148,0.279,0.242,0.515,0.309,0.675c0.065,0.177,0.101,0.271,0.101,0.271
		c0.155,0.417-0.058,0.879-0.474,1.034c-0.231,0.086-0.478,0.059-0.677-0.054l-0.254-0.145c0.003,0.003-0.045-0.026-0.151-0.117
		c-0.108-0.087-0.268-0.214-0.471-0.375c-0.41-0.32-1.013-0.75-1.744-1.182c-0.741-0.419-1.606-0.836-2.562-1.103
		c-0.462-0.139-0.997-0.25-1.451-0.31c-0.252-0.015-0.385-0.074-0.751-0.077l-0.482-0.019l-0.241-0.01l-0.06-0.002
		c0.189,0.005,0.049,0.001,0.089,0.003h-0.006l-0.012,0L10.312,6.48l-0.099,0.004C9.685,6.49,9.163,6.545,8.646,6.616
		c-0.256,0.051-0.51,0.101-0.761,0.151c-0.25,0.068-0.497,0.136-0.74,0.202c-0.479,0.164-0.954,0.32-1.394,0.518
		C5.32,7.696,4.898,7.891,4.52,8.103c-0.756,0.425-1.381,0.84-1.812,1.145c-0.44,0.318-0.65,0.463-0.661,0.479
		c-0.258,0.357-0.757,0.437-1.114,0.178C0.646,9.697,0.539,9.334,0.64,9.015L0.717,8.777z"/>
</g>
<circle fill="none" stroke="#231F20" stroke-width="2" stroke-linecap="round" stroke-miterlimit="10" cx="10.23" cy="8.646" r="3.688"/>
<path fill="none" stroke="#231F20" stroke-width="2" stroke-linecap="round" stroke-miterlimit="10" d="M10.271,12.334
	C7.938,11.938,7.812,9.625,7.812,8.75c0-1.125,0.562-3.188,2.938-3.312"/>
</svg>
