<?xml version="1.0" encoding="utf-8"?>
<!-- Generator: Adobe Illustrator 16.0.0, SVG Export Plug-In . SVG Version: 6.00 Build 0)  -->
<!DOCTYPE svg PUBLIC "-//W3C//DTD SVG 1.1//EN" "http://www.w3.org/Graphics/SVG/1.1/DTD/svg11.dtd">
<svg version="1.1" id="Layer_1" xmlns="http://www.w3.org/2000/svg" xmlns:xlink="http://www.w3.org/1999/xlink" x="0px" y="0px"
	 width="99.875px" height="100px" viewBox="0.062 0 99.875 100" enable-background="new 0.062 0 99.875 100" xml:space="preserve">
<path d="M25.092,67.837c-6.047,5.196-11.004,11.726-14.268,18.981C6.107,81.62,3.568,74.852,3.568,67.837
	c0-4.112,1.207-8.226,3.506-11.729L20.86,35.067c3.384-5.199,5.195-11.365,5.195-17.532c0-5.32-1.328-10.519-3.867-15.236
	l-3.021,1.692c2.176,4.235,3.387,8.827,3.387,13.544c0,5.563-1.694,11.001-4.717,15.6L4.054,54.174
	C1.39,58.162,0.062,63,0.062,67.838C0.062,85.609,14.451,100,32.105,100c3.627,0,7.135-0.604,10.52-1.814
	c0.121-1.332,0.238-2.66,0.238-3.871C42.863,82.709,35.852,72.188,25.092,67.837z M26.057,90.93c-1.535,0-2.781-1.246-2.781-2.781
	s1.245-2.781,2.781-2.781c1.535,0,2.781,1.246,2.781,2.781S27.592,90.93,26.057,90.93z"/>
<path d="M90.143,0c-5.438,0-10.641,2.663-13.781,7.138c-2.538-1.575-5.442-2.421-8.463-2.421c-6.41,0-12.094,3.749-14.633,9.552
	c2.66-1.569,5.803-2.54,9.067-2.54c3.871,0,7.134,1.089,10.397,3.385c2.783,2.06,4.476,5.202,4.476,8.709v0.121
	c-0.122,4.835-1.207,9.912-3.144,14.387c-3.992,8.705-11.729,14.753-21.28,16.324l-3.871,0.847c-0.604-1.691-0.967-3.507-0.967-5.32
	c0-2.539,0.238-3.867,1.211-6.166C43.47,47.16,39.722,52.6,38.632,59.13l-11.605,7.134c11.002,4.961,18.137,15.961,18.137,28.053
	c0,0-0.24,3.023-0.121,3.023c14.996-7.135,11.971-5.199,24.426-16.204c1.932-1.692,4.471-2.538,7.135-2.538
	c3.746,0,7.131,1.935,9.066,5.077v-0.722c0-2.178,0-2.299-0.604-4.355c-1.332-3.988-4.717-6.77-8.463-7.98
	c5.924-9.674,8.219-16.443,9.309-27.687l0.363-15.356l-0.363-11.851c-0.119-0.364-0.119-0.726-0.119-0.968
	c0-3.99,2.055-7.499,5.561-9.434c2.902-1.569,5.32-2.175,8.584-2.175C96.916,0.971,93.896,0,90.143,0z"/>
</svg>
