<?xml version="1.0" encoding="utf-8"?>
<!-- Generator: Adobe Illustrator 15.1.0, SVG Export Plug-In . SVG Version: 6.00 Build 0)  -->
<!DOCTYPE svg PUBLIC "-//W3C//DTD SVG 1.1//EN" "http://www.w3.org/Graphics/SVG/1.1/DTD/svg11.dtd">
<svg version="1.1" id="Layer_1" xmlns="http://www.w3.org/2000/svg" xmlns:xlink="http://www.w3.org/1999/xlink" x="0px" y="0px"
	 width="60px" height="60px" viewBox="0 0 60 60" enable-background="new 0 0 60 60" xml:space="preserve">
<g>
	<path fill="#E6E7E8" d="M43.909,8.873h-3.03c-1.393,0-3.012,0.808-3.85,1.921l-6.293,8.369l-6.152-8.346
		c-0.831-1.127-2.449-1.944-3.848-1.944H17.81c-1.837,0-3.332,1.494-3.332,3.331v21.514c0,1.837,1.495,3.331,3.332,3.331h3.271
		c1.836,0,3.331-1.494,3.331-3.331v-7.78l3.942,5.354c0.583,0.794,1.45,1.247,2.378,1.247c0.912,0,1.772-0.443,2.356-1.219
		l4.113-5.454v7.852c0,1.837,1.493,3.331,3.331,3.331h3.375c1.837,0,3.33-1.494,3.33-3.331V12.204
		C47.24,10.367,45.746,8.873,43.909,8.873z"/>
	<g>
		<path fill="#29ABE2" d="M0.688,40.779h1.36l1.508,2.426l1.508-2.426h1.36v5.736H5.17V42.77l-1.614,2.451H3.523l-1.598-2.426v3.721
			H0.688V40.779z"/>
		<path fill="#29ABE2" d="M8.692,43.664v-0.018c0-1.629,1.287-2.965,3.057-2.965s3.04,1.317,3.04,2.948v0.017
			c0,1.631-1.287,2.968-3.057,2.968S8.692,45.295,8.692,43.664z M13.469,43.664v-0.018c0-0.982-0.721-1.804-1.737-1.804
			s-1.721,0.806-1.721,1.787v0.017c0,0.982,0.721,1.804,1.737,1.804S13.469,44.646,13.469,43.664z"/>
		<path fill="#29ABE2" d="M18.654,40.739h1.164l2.458,5.776h-1.319l-0.524-1.287h-2.426l-0.524,1.287h-1.286L18.654,40.739z
			 M19.982,44.115l-0.762-1.86l-0.762,1.86H19.982z"/>
		<path fill="#29ABE2" d="M24.307,40.779h2.663c0.655,0,1.171,0.181,1.499,0.509c0.263,0.262,0.394,0.582,0.394,0.976v0.016
			c0,0.647-0.344,1.01-0.754,1.238c0.664,0.254,1.073,0.64,1.073,1.408v0.018c0,1.05-0.852,1.572-2.146,1.572h-2.729V40.779z
			 M26.699,43.1c0.557,0,0.909-0.181,0.909-0.605v-0.018c0-0.377-0.295-0.591-0.827-0.591h-1.246V43.1H26.699z M27.035,45.409
			c0.557,0,0.893-0.196,0.893-0.622V44.77c0-0.386-0.287-0.623-0.934-0.623h-1.458v1.264L27.035,45.409L27.035,45.409z"/>
		<path fill="#29ABE2" d="M31.426,40.779h1.262v5.736h-1.262V40.779z"/>
		<path fill="#29ABE2" d="M38.872,40.779h2.235c1.804,0,3.05,1.238,3.05,2.853v0.017c0,1.613-1.246,2.867-3.05,2.867h-2.235V40.779z
			 M41.107,45.377c1.033,0,1.729-0.695,1.729-1.713v-0.018c0-1.017-0.695-1.729-1.729-1.729h-0.976v3.458L41.107,45.377
			L41.107,45.377z"/>
		<path fill="#29ABE2" d="M46.426,40.779h2.622c0.729,0,1.295,0.205,1.671,0.582c0.32,0.32,0.492,0.771,0.492,1.312v0.017
			c0,0.928-0.5,1.509-1.229,1.777l1.399,2.049h-1.475l-1.229-1.834h-0.992v1.834h-1.262v-5.736H46.426z M48.966,43.564
			c0.614,0,0.968-0.326,0.968-0.812v-0.019c0-0.541-0.377-0.817-0.992-0.817h-1.254v1.646h1.278V43.564z"/>
		<path fill="#29ABE2" d="M53.242,43.664v-0.018c0-1.629,1.229-2.965,2.99-2.965c1.082,0,1.729,0.358,2.262,0.885l-0.803,0.926
			c-0.442-0.401-0.896-0.646-1.467-0.646c-0.969,0-1.664,0.803-1.664,1.786v0.017c0,0.982,0.681,1.804,1.664,1.804
			c0.653,0,1.057-0.263,1.508-0.673l0.803,0.812c-0.59,0.633-1.245,1.024-2.352,1.024C54.495,46.614,53.242,45.312,53.242,43.664z"
			/>
	</g>
	<g>
		<path d="M24.561,52.016v0.338h-0.499v-3.008h0.499v1.194c0.161-0.228,0.387-0.408,0.738-0.408c0.515,0,1.013,0.408,1.013,1.129
			v0.009c0,0.723-0.494,1.129-1.013,1.129C24.94,52.396,24.713,52.217,24.561,52.016z M25.805,51.27v-0.009
			c0-0.42-0.284-0.696-0.622-0.696s-0.634,0.281-0.634,0.696v0.009c0,0.42,0.296,0.695,0.634,0.695
			C25.525,51.965,25.805,51.697,25.805,51.27z"/>
		<path d="M27.121,51.273v-0.01c0-0.621,0.44-1.134,1.062-1.134c0.692,0,1.042,0.544,1.042,1.17c0,0.048-0.004,0.093-0.008,0.142
			h-1.599c0.054,0.354,0.305,0.553,0.626,0.553c0.243,0,0.416-0.092,0.589-0.26l0.292,0.26c-0.206,0.247-0.49,0.408-0.89,0.408
			C27.607,52.402,27.121,51.943,27.121,51.273z M28.732,51.111c-0.033-0.32-0.223-0.571-0.552-0.571
			c-0.305,0-0.519,0.233-0.564,0.571H28.732z"/>
		<path d="M30.249,51.751v-1.146h-0.276v-0.431h0.276V49.58h0.499v0.597h0.585v0.429h-0.585v1.067c0,0.193,0.1,0.271,0.27,0.271
			c0.109,0,0.209-0.022,0.31-0.072v0.406c-0.124,0.07-0.265,0.111-0.449,0.111C30.508,52.391,30.249,52.229,30.249,51.751z"/>
		<path d="M33.581,52.354v-0.269c-0.147,0.177-0.375,0.312-0.704,0.312c-0.412,0-0.775-0.232-0.775-0.67v-0.01
			c0-0.48,0.375-0.713,0.883-0.713c0.265,0,0.434,0.037,0.603,0.092v-0.041c0-0.302-0.188-0.467-0.536-0.467
			c-0.24,0-0.424,0.055-0.619,0.137l-0.139-0.398c0.239-0.105,0.477-0.182,0.828-0.182c0.645,0,0.956,0.338,0.956,0.918v1.289
			h-0.495L33.581,52.354L33.581,52.354z M33.594,51.441c-0.129-0.049-0.306-0.086-0.498-0.086c-0.312,0-0.5,0.127-0.5,0.338v0.008
			c0,0.206,0.188,0.32,0.422,0.32c0.328,0,0.576-0.186,0.576-0.457V51.441z"/>
	</g>
	<path fill="#231F20" d="M42.141,6.513h-3.031c-1.393,0-3.012,0.809-3.85,1.922l-6.293,8.368l-6.152-8.346
		c-0.831-1.126-2.449-1.944-3.849-1.944H16.04c-1.836,0-3.331,1.494-3.331,3.331v21.514c0,1.838,1.495,3.332,3.331,3.332h3.271
		c1.837,0,3.331-1.494,3.331-3.332V23.58l3.941,5.354c0.584,0.793,1.451,1.248,2.378,1.248c0.915,0,1.773-0.444,2.359-1.22
		l4.113-5.454v7.854c0,1.838,1.492,3.33,3.33,3.33h3.375c1.838,0,3.332-1.492,3.332-3.33V9.844
		C45.471,8.007,43.977,6.513,42.141,6.513z"/>
	<path fill="#FFFFFF" d="M30.081,27.53l-0.238,0.314c-0.49,0.65-1.287,0.646-1.77-0.01l-6.404-8.699
		c-0.483-0.656-0.878-0.526-0.878,0.288v11.935c0,0.813-0.667,1.479-1.48,1.479h-0.864v-17.38c0-0.455-0.368-0.823-0.822-0.823
		c-0.455,0-0.823,0.368-0.823,0.823v17.38H16.04c-0.814,0-1.48-0.666-1.48-1.479V9.844c0-0.786,0.624-1.429,1.4-1.472L30.081,27.53z
		 M42.141,8.363H41.9l-10.488,14.23c-0.161,0.219-0.41,0.335-0.663,0.335c-0.169,0-0.34-0.053-0.487-0.16
		c-0.366-0.271-0.444-0.785-0.174-1.15l9.77-13.254h-0.748c-0.812,0-1.881,0.533-2.371,1.184l-6.896,9.172
		c-0.49,0.65-1.285,0.646-1.769-0.009l-6.748-9.155c-0.483-0.654-1.544-1.191-2.359-1.191h-0.969l13.118,17.796l5.276-6.999
		c0.489-0.649,0.892-0.516,0.892,0.299v11.898c0,0.812,0.668,1.479,1.481,1.479h0.864V15.114c0-0.454,0.368-0.822,0.822-0.822
		s0.821,0.368,0.821,0.822v17.724h0.863c0.813,0,1.48-0.666,1.48-1.48V9.844C43.62,9.03,42.953,8.363,42.141,8.363z"/>
</g>
</svg>
