<?xml version="1.0" encoding="utf-8"?>
<!-- Generator: Adobe Illustrator 15.1.0, SVG Export Plug-In . SVG Version: 6.00 Build 0)  -->
<!DOCTYPE svg PUBLIC "-//W3C//DTD SVG 1.1//EN" "http://www.w3.org/Graphics/SVG/1.1/DTD/svg11.dtd">
<svg version="1.1" id="Layer_1" xmlns="http://www.w3.org/2000/svg" xmlns:xlink="http://www.w3.org/1999/xlink" x="0px" y="0px"
	 width="60px" height="60px" viewBox="0 0 60 60" enable-background="new 0 0 60 60" xml:space="preserve">
<path fill="#404041" d="M10.153,24.734H9.107c-0.48,0-1.038,0.279-1.327,0.663l-2.171,2.887l-2.122-2.879
	c-0.287-0.389-0.846-0.671-1.328-0.671h-1.01C0.516,24.734,0,25.25,0,25.883v7.422c0,0.635,0.516,1.149,1.149,1.149h1.129
	c0.634,0,1.148-0.517,1.148-1.149v-2.684l1.36,1.847c0.201,0.273,0.5,0.431,0.82,0.431c0.315,0,0.611-0.151,0.813-0.42l1.419-1.881
	v2.707c0,0.635,0.516,1.149,1.149,1.149h1.164c0.634,0,1.149-0.517,1.149-1.149v-7.422C11.303,25.25,10.787,24.734,10.153,24.734z"
	/>
<path fill="#FFFFFF" d="M5.993,31.984l-0.082,0.106c-0.169,0.226-0.443,0.224-0.61-0.004l-2.209-3
	c-0.167-0.226-0.303-0.182-0.303,0.1v4.118c0,0.279-0.23,0.512-0.511,0.512H1.979V27.82c0-0.157-0.127-0.284-0.283-0.284
	c-0.157,0-0.284,0.127-0.284,0.284v5.997H1.149c-0.281,0-0.511-0.229-0.511-0.512v-7.422c0-0.271,0.215-0.493,0.483-0.508
	L5.993,31.984z M10.153,25.373h-0.082l-3.618,4.909c-0.057,0.075-0.142,0.115-0.229,0.115c-0.058,0-0.117-0.018-0.168-0.055
	c-0.126-0.093-0.153-0.271-0.06-0.397l3.37-4.572H9.107c-0.28,0-0.648,0.184-0.817,0.408l-2.379,3.164
	c-0.169,0.224-0.443,0.223-0.61-0.003l-2.328-3.159c-0.167-0.226-0.532-0.411-0.813-0.411H1.825l4.525,6.139l1.82-2.415
	c0.169-0.225,0.308-0.178,0.308,0.103v4.104c0,0.28,0.229,0.512,0.511,0.512h0.299V27.7c0-0.157,0.127-0.284,0.283-0.284
	c0.157,0,0.284,0.127,0.284,0.284v6.114h0.298c0.28,0,0.511-0.23,0.511-0.513V25.88C10.664,25.602,10.434,25.373,10.153,25.373z"/>
<g>
	<path fill="#BBBDBF" d="M5.609,28.284l0.005-0.007l-1.517-2.058c-0.028-0.038-0.059-0.073-0.091-0.108L5.609,28.284z"/>
	<path fill="#BBBDBF" d="M11.282,25.673c0.013,0.068,0.021,0.139,0.021,0.21v7.422c0,0.635-0.516,1.149-1.149,1.149H8.989
		c-0.187,0-0.362-0.046-0.519-0.125c0.099,0.532,0.567,0.938,1.129,0.938h1.164c0.634,0,1.149-0.518,1.149-1.148v-7.422
		C11.913,26.25,11.656,25.863,11.282,25.673z"/>
	<path fill="#BBBDBF" d="M3.427,30.621v2.684c0,0.635-0.515,1.149-1.148,1.149h-1.13c-0.187,0-0.362-0.046-0.519-0.125
		c0.099,0.532,0.567,0.938,1.129,0.938h1.129c0.634,0,1.148-0.518,1.148-1.148V31.45L3.427,30.621z"/>
	<path fill="#BBBDBF" d="M7.84,30.596l-1.419,1.881c-0.202,0.27-0.498,0.422-0.813,0.422c-0.276,0-0.536-0.116-0.731-0.324
		l0.521,0.709c0.201,0.271,0.5,0.431,0.82,0.431c0.315,0,0.612-0.151,0.813-0.421l0.809-1.07V30.596z"/>
</g>
<g>
	<g>
		<g>
			<path fill="#29ABE2" d="M17.756,28.074h0.967l1.073,1.725l1.072-1.725h0.968v4.08h-0.892V29.49l-1.148,1.742h-0.023l-1.137-1.727
				v2.646h-0.88V28.074z"/>
			<path fill="#29ABE2" d="M23.457,30.126v-0.012c0-1.16,0.915-2.11,2.174-2.11c1.259,0,2.163,0.938,2.163,2.099v0.012
				c0,1.16-0.915,2.109-2.174,2.109C24.36,32.225,23.457,31.286,23.457,30.126z M26.854,30.126v-0.012
				c0-0.7-0.513-1.282-1.235-1.282c-0.723,0-1.224,0.571-1.224,1.271v0.012c0,0.699,0.513,1.281,1.235,1.281
				C26.354,31.396,26.854,30.825,26.854,30.126z"/>
			<path fill="#29ABE2" d="M30.55,28.045h0.828l1.749,4.109h-0.939l-0.373-0.915H30.09l-0.373,0.915h-0.915L30.55,28.045z
				 M31.494,30.446l-0.542-1.323l-0.542,1.323H31.494z"/>
			<path fill="#29ABE2" d="M34.578,28.074h1.895c0.467,0,0.834,0.128,1.065,0.361c0.188,0.187,0.28,0.414,0.28,0.693v0.012
				c0,0.46-0.245,0.717-0.536,0.88c0.472,0.181,0.764,0.455,0.764,1.001v0.013c0,0.745-0.606,1.118-1.526,1.118H34.58L34.578,28.074
				L34.578,28.074z M36.279,29.724c0.396,0,0.646-0.128,0.646-0.431v-0.012c0-0.268-0.21-0.42-0.589-0.42H35.45v0.863H36.279z
				 M36.52,31.367c0.396,0,0.635-0.141,0.635-0.443v-0.012c0-0.273-0.202-0.443-0.663-0.443h-1.037v0.897L36.52,31.367L36.52,31.367
				z"/>
			<path fill="#29ABE2" d="M39.646,28.074h0.896v4.08h-0.896V28.074z"/>
			<path fill="#29ABE2" d="M44.951,28.074h1.592c1.282,0,2.168,0.88,2.168,2.028v0.012c0,1.146-0.886,2.04-2.168,2.04h-1.592V28.074
				z M46.543,31.344c0.734,0,1.229-0.494,1.229-1.218v-0.012c0-0.723-0.494-1.23-1.229-1.23H45.85v2.459L46.543,31.344
				L46.543,31.344z"/>
			<path fill="#29ABE2" d="M50.331,28.074h1.864c0.521,0,0.922,0.146,1.188,0.414c0.229,0.228,0.351,0.548,0.351,0.933v0.012
				c0,0.659-0.354,1.073-0.873,1.265l0.996,1.456h-1.049l-0.875-1.305h-0.705v1.305h-0.897V28.074z M52.139,30.056
				c0.438,0,0.688-0.233,0.688-0.577v-0.012c0-0.385-0.269-0.583-0.705-0.583H51.23v1.171L52.139,30.056L52.139,30.056z"/>
			<path fill="#29ABE2" d="M55.186,30.126v-0.012c0-1.16,0.875-2.11,2.129-2.11c0.771,0,1.229,0.257,1.607,0.63l-0.57,0.659
				c-0.313-0.286-0.636-0.46-1.043-0.46c-0.688,0-1.185,0.571-1.185,1.271v0.012c0,0.698,0.483,1.282,1.185,1.282
				c0.465,0,0.752-0.188,1.071-0.479l0.571,0.578c-0.42,0.446-0.887,0.729-1.674,0.729C56.078,32.225,55.186,31.298,55.186,30.126z"
				/>
		</g>
	</g>
</g>
</svg>
