<?xml version="1.0" encoding="utf-8"?>
<!-- Generator: Adobe Illustrator 15.1.0, SVG Export Plug-In . SVG Version: 6.00 Build 0)  -->
<!DOCTYPE svg PUBLIC "-//W3C//DTD SVG 1.1//EN" "http://www.w3.org/Graphics/SVG/1.1/DTD/svg11.dtd">
<svg version="1.1" id="Layer_1" xmlns="http://www.w3.org/2000/svg" xmlns:xlink="http://www.w3.org/1999/xlink" x="0px" y="0px"
	 width="60px" height="60px" viewBox="0 0 60 60" enable-background="new 0 0 60 60" xml:space="preserve">
<g>
	<path fill="#5E5E5E" d="M10.785,25.55H9.737c-0.481,0-1.041,0.279-1.331,0.664l-2.175,2.893l-2.126-2.885
		c-0.287-0.39-0.847-0.672-1.33-0.672H1.763c-0.635,0-1.151,0.516-1.151,1.151v7.436c0,0.635,0.517,1.15,1.151,1.15h1.131
		c0.635,0,1.151-0.516,1.151-1.15v-2.689l1.362,1.852c0.202,0.273,0.501,0.432,0.822,0.432c0.316,0,0.614-0.154,0.815-0.422
		l1.422-1.887v2.715c0,0.635,0.516,1.15,1.151,1.15h1.167c0.634,0,1.151-0.516,1.151-1.15v-7.436
		C11.936,26.066,11.419,25.55,10.785,25.55z"/>
	<path fill="#231F20" d="M10.172,24.734H9.125c-0.481,0-1.041,0.279-1.331,0.664L5.62,28.291l-2.126-2.885
		c-0.287-0.389-0.846-0.672-1.33-0.672H1.151C0.517,24.734,0,25.25,0,25.885v7.435c0,0.635,0.517,1.152,1.151,1.152h1.131
		c0.635,0,1.151-0.518,1.151-1.152v-2.688l1.362,1.85c0.202,0.273,0.501,0.432,0.822,0.432c0.316,0,0.613-0.154,0.815-0.422
		l1.421-1.885v2.713c0,0.635,0.517,1.152,1.151,1.152h1.167c0.636,0,1.152-0.518,1.152-1.152v-7.435
		C11.324,25.25,10.808,24.734,10.172,24.734z"/>
	<path fill="#FFFFFF" d="M6.005,31.998l-0.083,0.109c-0.169,0.225-0.445,0.223-0.611-0.004l-2.214-3.007
		c-0.167-0.227-0.303-0.182-0.303,0.1v4.124c0,0.283-0.23,0.512-0.512,0.512H1.983v-6.007c0-0.157-0.127-0.284-0.284-0.284
		c-0.157,0-0.284,0.127-0.284,0.284v6.007H1.151c-0.281,0-0.512-0.229-0.512-0.512v-7.435c0-0.272,0.216-0.494,0.484-0.509
		L6.005,31.998z M10.172,25.374H10.09l-3.625,4.918c-0.056,0.076-0.142,0.116-0.229,0.116c-0.059,0-0.118-0.019-0.169-0.056
		c-0.126-0.093-0.153-0.271-0.06-0.397l3.377-4.581H9.125c-0.281,0-0.65,0.184-0.819,0.409l-2.384,3.17
		c-0.169,0.225-0.444,0.224-0.611-0.003l-2.333-3.165c-0.167-0.227-0.534-0.412-0.815-0.412H1.828l4.534,6.15l1.824-2.418
		c0.169-0.225,0.308-0.178,0.308,0.103v4.112c0,0.283,0.231,0.512,0.512,0.512h0.3v-6.125c0-0.157,0.128-0.284,0.284-0.284
		c0.157,0,0.284,0.127,0.284,0.284v6.125h0.298c0.282,0,0.512-0.229,0.512-0.512v-7.435C10.684,25.604,10.454,25.374,10.172,25.374z
		"/>
</g>
<g>
	<g>
		<g>
			<path fill="#00ADEE" d="M16.399,27.495h0.999l1.108,1.782l1.107-1.782h1v4.215h-0.921v-2.752l-1.186,1.799h-0.024l-1.174-1.784
				v2.733h-0.909V27.495z"/>
			<path fill="#00ADEE" d="M22.288,29.615v-0.012c0-1.198,0.945-2.18,2.246-2.18c1.301,0,2.234,0.969,2.234,2.168v0.013
				c0,1.198-0.945,2.179-2.246,2.179C23.221,31.782,22.288,30.813,22.288,29.615z M25.797,29.615v-0.012
				c0-0.723-0.53-1.325-1.276-1.325c-0.747,0-1.264,0.59-1.264,1.313v0.013c0,0.722,0.53,1.323,1.275,1.323
				C25.281,30.927,25.797,30.337,25.797,29.615z"/>
			<path fill="#00ADEE" d="M29.615,27.465h0.855l1.806,4.245h-0.97l-0.386-0.945H29.14l-0.385,0.945h-0.945L29.615,27.465z
				 M30.59,29.945l-0.56-1.366l-0.56,1.366H30.59z"/>
			<path fill="#00ADEE" d="M33.775,27.495h1.957c0.482,0,0.861,0.132,1.101,0.373c0.194,0.193,0.289,0.428,0.289,0.715v0.013
				c0,0.475-0.253,0.741-0.554,0.909c0.487,0.187,0.789,0.47,0.789,1.034v0.013c0,0.77-0.626,1.155-1.576,1.155h-2.004
				L33.775,27.495L33.775,27.495z M35.533,29.2c0.408,0,0.666-0.132,0.666-0.445v-0.012c0-0.277-0.217-0.435-0.608-0.435h-0.914
				V29.2H35.533z M35.781,30.896c0.409,0,0.655-0.145,0.655-0.458v-0.012c0-0.283-0.208-0.458-0.684-0.458h-1.071v0.927
				L35.781,30.896L35.781,30.896z"/>
			<path fill="#00ADEE" d="M39.011,27.495h0.925v4.215h-0.925V27.495z"/>
			<path fill="#00ADEE" d="M44.49,27.495h1.645c1.324,0,2.239,0.909,2.239,2.095v0.013c0,1.183-0.915,2.107-2.239,2.107H44.49
				V27.495z M46.135,30.873c0.758,0,1.269-0.51,1.269-1.258v-0.012c0-0.747-0.511-1.271-1.269-1.271h-0.717v2.54L46.135,30.873
				L46.135,30.873z"/>
			<path fill="#00ADEE" d="M50.047,27.495h1.926c0.538,0,0.952,0.151,1.227,0.427c0.236,0.236,0.363,0.566,0.363,0.964v0.013
				c0,0.68-0.366,1.108-0.901,1.307l1.028,1.504h-1.083l-0.904-1.348h-0.728v1.348h-0.928V27.495z M51.914,29.542
				c0.453,0,0.712-0.241,0.712-0.596v-0.013c0-0.397-0.278-0.602-0.729-0.602h-0.921v1.21L51.914,29.542L51.914,29.542z"/>
			<path fill="#00ADEE" d="M55.062,29.615v-0.012c0-1.198,0.904-2.18,2.199-2.18c0.797,0,1.27,0.265,1.66,0.65l-0.589,0.681
				c-0.323-0.296-0.657-0.475-1.077-0.475c-0.711,0-1.224,0.589-1.224,1.312v0.013c0,0.721,0.499,1.325,1.224,1.325
				c0.479,0,0.776-0.195,1.106-0.496l0.59,0.598c-0.434,0.461-0.916,0.753-1.729,0.753C55.983,31.782,55.062,30.825,55.062,29.615z"
				/>
		</g>
	</g>
</g>
<text transform="matrix(1 0 0 1 55.1855 34.4727)" fill="#E6E7E8" font-family="'Gotham-Bold'" font-size="1.2073">BETA</text>
</svg>
