<?xml version="1.0" encoding="utf-8"?>
<!-- Generator: Adobe Illustrator 15.1.0, SVG Export Plug-In . SVG Version: 6.00 Build 0)  -->
<!DOCTYPE svg PUBLIC "-//W3C//DTD SVG 1.1//EN" "http://www.w3.org/Graphics/SVG/1.1/DTD/svg11.dtd">
<svg version="1.1" id="Layer_1" xmlns="http://www.w3.org/2000/svg" xmlns:xlink="http://www.w3.org/1999/xlink" x="0px" y="0px"
	 width="60px" height="60px" viewBox="0 0 60 60" enable-background="new 0 0 60 60" xml:space="preserve">
<path opacity="0.1" fill="#231F20" d="M44.927,8.873h-3.03c-1.393,0-3.012,0.808-3.85,1.921l-6.293,8.369l-6.152-8.346
	c-0.831-1.127-2.449-1.944-3.848-1.944h-2.926c-1.838,0-3.332,1.494-3.332,3.331v21.514c0,1.837,1.494,3.331,3.332,3.331h3.271
	c1.836,0,3.331-1.494,3.331-3.331v-7.78l3.941,5.354c0.584,0.794,1.451,1.247,2.379,1.247c0.912,0,1.771-0.443,2.355-1.219
	l4.113-5.454v7.852c0,1.837,1.492,3.331,3.331,3.331h3.375c1.837,0,3.329-1.494,3.329-3.331V12.204
	C48.258,10.367,46.764,8.873,44.927,8.873z"/>
<g>
	<path fill="#29ABE2" d="M1.076,40.779h1.36l1.509,2.426l1.508-2.426h1.359v5.736H5.559V42.77l-1.613,2.451H3.912l-1.599-2.426
		v3.721H1.076V40.779z"/>
	<path fill="#29ABE2" d="M9.08,43.664v-0.018c0-1.629,1.287-2.965,3.058-2.965s3.04,1.316,3.04,2.947v0.018
		c0,1.631-1.287,2.967-3.057,2.967C10.351,46.613,9.08,45.295,9.08,43.664z M13.857,43.664v-0.018c0-0.982-0.721-1.805-1.736-1.805
		c-1.017,0-1.721,0.807-1.721,1.787v0.018c0,0.981,0.721,1.804,1.736,1.804S13.857,44.646,13.857,43.664z"/>
	<path fill="#29ABE2" d="M19.043,40.739h1.164l2.457,5.776h-1.318l-0.523-1.287h-2.427l-0.524,1.287h-1.285L19.043,40.739z
		 M20.371,44.115l-0.762-1.86l-0.763,1.86H20.371z"/>
	<path fill="#29ABE2" d="M24.695,40.779h2.664c0.654,0,1.17,0.181,1.498,0.509c0.264,0.262,0.395,0.582,0.395,0.976v0.016
		c0,0.647-0.344,1.011-0.754,1.238c0.664,0.254,1.072,0.641,1.072,1.408v0.018c0,1.051-0.852,1.572-2.146,1.572h-2.729V40.779z
		 M27.088,43.1c0.557,0,0.908-0.181,0.908-0.604v-0.019c0-0.377-0.295-0.591-0.826-0.591h-1.246V43.1H27.088z M27.424,45.409
		c0.557,0,0.893-0.196,0.893-0.622V44.77c0-0.386-0.287-0.623-0.934-0.623h-1.458v1.265L27.424,45.409L27.424,45.409z"/>
	<path fill="#29ABE2" d="M31.814,40.779h1.262v5.736h-1.262V40.779z"/>
	<path fill="#29ABE2" d="M39.261,40.779h2.235c1.804,0,3.05,1.238,3.05,2.853v0.017c0,1.613-1.246,2.867-3.05,2.867h-2.235V40.779z
		 M41.496,45.377c1.033,0,1.729-0.695,1.729-1.713v-0.018c0-1.018-0.695-1.729-1.729-1.729H40.52v3.458L41.496,45.377L41.496,45.377
		z"/>
	<path fill="#29ABE2" d="M46.814,40.779h2.622c0.729,0,1.295,0.205,1.671,0.582c0.32,0.32,0.492,0.771,0.492,1.312v0.017
		c0,0.929-0.5,1.51-1.229,1.777l1.398,2.049h-1.475l-1.229-1.834h-0.991v1.834h-1.263v-5.736H46.814L46.814,40.779z M49.354,43.564
		c0.614,0,0.968-0.326,0.968-0.812v-0.02c0-0.541-0.377-0.816-0.992-0.816h-1.254v1.646h1.278V43.564z"/>
	<path fill="#29ABE2" d="M53.631,43.664v-0.018c0-1.629,1.229-2.965,2.99-2.965c1.082,0,1.729,0.357,2.262,0.885l-0.803,0.926
		c-0.442-0.401-0.896-0.646-1.467-0.646c-0.97,0-1.664,0.803-1.664,1.786v0.017c0,0.982,0.681,1.805,1.664,1.805
		c0.652,0,1.057-0.264,1.508-0.674l0.803,0.812c-0.59,0.633-1.245,1.024-2.352,1.024C54.884,46.614,53.631,45.312,53.631,43.664z"/>
</g>
<g opacity="0.5">
	<path fill="#FFFFFF" d="M24.949,52.016v0.338h-0.498v-3.008h0.498v1.194c0.162-0.228,0.388-0.408,0.738-0.408
		c0.516,0,1.014,0.408,1.014,1.129v0.009c0,0.724-0.494,1.129-1.014,1.129C25.328,52.396,25.102,52.217,24.949,52.016z
		 M26.193,51.27v-0.009c0-0.42-0.283-0.696-0.621-0.696s-0.635,0.281-0.635,0.696v0.009c0,0.42,0.297,0.695,0.635,0.695
		C25.914,51.965,26.193,51.697,26.193,51.27z"/>
	<path fill="#FFFFFF" d="M27.51,51.273v-0.01c0-0.621,0.439-1.135,1.062-1.135c0.691,0,1.041,0.544,1.041,1.17
		c0,0.049-0.004,0.094-0.008,0.143h-1.599c0.054,0.354,0.305,0.553,0.626,0.553c0.242,0,0.416-0.092,0.589-0.26l0.292,0.26
		c-0.206,0.247-0.49,0.408-0.891,0.408C27.996,52.402,27.51,51.943,27.51,51.273z M29.121,51.111
		c-0.033-0.32-0.224-0.571-0.553-0.571c-0.305,0-0.519,0.233-0.563,0.571H29.121z"/>
	<path fill="#FFFFFF" d="M30.638,51.751v-1.146h-0.276v-0.432h0.276V49.58h0.499v0.597h0.585v0.429h-0.585v1.067
		c0,0.193,0.1,0.271,0.27,0.271c0.109,0,0.209-0.021,0.311-0.071v0.405c-0.124,0.07-0.266,0.111-0.449,0.111
		C30.896,52.391,30.638,52.229,30.638,51.751z"/>
	<path fill="#FFFFFF" d="M33.97,52.354v-0.269c-0.147,0.177-0.375,0.312-0.704,0.312c-0.412,0-0.775-0.231-0.775-0.67v-0.01
		c0-0.48,0.375-0.713,0.883-0.713c0.266,0,0.435,0.037,0.604,0.092v-0.041c0-0.302-0.188-0.467-0.536-0.467
		c-0.239,0-0.424,0.055-0.618,0.137l-0.14-0.397c0.239-0.104,0.478-0.183,0.828-0.183c0.646,0,0.956,0.338,0.956,0.918v1.289h-0.495
		L33.97,52.354L33.97,52.354z M33.982,51.441c-0.129-0.049-0.306-0.086-0.498-0.086c-0.312,0-0.5,0.127-0.5,0.338v0.008
		c0,0.206,0.188,0.32,0.422,0.32c0.328,0,0.576-0.187,0.576-0.457V51.441z"/>
</g>
<path fill="#231F20" d="M43.158,6.513h-3.031c-1.393,0-3.012,0.809-3.85,1.922l-6.293,8.368l-6.152-8.346
	c-0.83-1.126-2.448-1.944-3.849-1.944h-2.926c-1.836,0-3.331,1.494-3.331,3.331v21.514c0,1.838,1.495,3.332,3.331,3.332h3.271
	c1.838,0,3.332-1.494,3.332-3.332V23.58l3.94,5.354c0.584,0.793,1.451,1.248,2.378,1.248c0.915,0,1.773-0.444,2.359-1.22
	l4.113-5.454v7.854c0,1.839,1.491,3.33,3.33,3.33h3.375c1.838,0,3.332-1.491,3.332-3.33V9.844
	C46.488,8.007,44.994,6.513,43.158,6.513z"/>
<path fill="#FFFFFF" d="M31.099,27.53l-0.238,0.314c-0.489,0.65-1.286,0.646-1.77-0.01l-6.404-8.699
	c-0.483-0.656-0.878-0.526-0.878,0.288v11.935c0,0.813-0.667,1.479-1.48,1.479h-0.863v-17.38c0-0.455-0.368-0.823-0.822-0.823
	c-0.455,0-0.823,0.368-0.823,0.823v17.38h-0.762c-0.813,0-1.479-0.666-1.479-1.479V9.844c0-0.786,0.623-1.429,1.399-1.472
	L31.099,27.53z M43.158,8.363h-0.24L32.43,22.593c-0.161,0.219-0.41,0.335-0.663,0.335c-0.169,0-0.34-0.053-0.487-0.16
	c-0.365-0.271-0.443-0.785-0.174-1.15l9.77-13.254h-0.748c-0.812,0-1.881,0.533-2.371,1.184L30.86,18.72
	c-0.489,0.65-1.284,0.646-1.769-0.009l-6.748-9.155C21.86,8.902,20.8,8.365,19.984,8.365h-0.969l13.118,17.796l5.276-6.999
	c0.488-0.649,0.892-0.516,0.892,0.299v11.898c0,0.812,0.668,1.479,1.481,1.479h0.863V15.114c0-0.454,0.368-0.822,0.822-0.822
	c0.453,0,0.82,0.368,0.82,0.822v17.724h0.863c0.813,0,1.48-0.666,1.48-1.48V9.844C44.638,9.03,43.971,8.363,43.158,8.363z"/>
</svg>
